<svg width="18" height="18" viewBox="0 0 18 18" fill="none" xmlns="http://www.w3.org/2000/svg">
<path d="M15.1875 16.875H11.25C10.8024 16.875 10.3732 16.6972 10.0568 16.3807C9.74029 16.0643 9.5625 15.6351 9.5625 15.1875V11.25C9.5625 10.8024 9.74029 10.3732 10.0568 10.0568C10.3732 9.74029 10.8024 9.5625 11.25 9.5625H15.1875C15.6351 9.5625 16.0643 9.74029 16.3807 10.0568C16.6972 10.3732 16.875 10.8024 16.875 11.25V15.1875C16.875 15.6351 16.6972 16.0643 16.3807 16.3807C16.0643 16.6972 15.6351 16.875 15.1875 16.875ZM11.25 10.6875C11.1008 10.6875 10.9577 10.7468 10.8523 10.8523C10.7468 10.9577 10.6875 11.1008 10.6875 11.25V15.1875C10.6875 15.3367 10.7468 15.4798 10.8523 15.5852C10.9577 15.6907 11.1008 15.75 11.25 15.75H15.1875C15.3367 15.75 15.4798 15.6907 15.5852 15.5852C15.6907 15.4798 15.75 15.3367 15.75 15.1875V11.25C15.75 11.1008 15.6907 10.9577 15.5852 10.8523C15.4798 10.7468 15.3367 10.6875 15.1875 10.6875H11.25Z" fill="#DEFF00"/>
<path d="M6.75 9.5625H2.8125C1.88052 9.5625 1.125 10.318 1.125 11.25V15.1875C1.125 16.1195 1.88052 16.875 2.8125 16.875H6.75C7.68198 16.875 8.4375 16.1195 8.4375 15.1875V11.25C8.4375 10.318 7.68198 9.5625 6.75 9.5625Z" fill="#DEFF00"/>
<path d="M15.1875 1.125H11.25C10.318 1.125 9.5625 1.88052 9.5625 2.8125V6.75C9.5625 7.68198 10.318 8.4375 11.25 8.4375H15.1875C16.1195 8.4375 16.875 7.68198 16.875 6.75V2.8125C16.875 1.88052 16.1195 1.125 15.1875 1.125Z" fill="#DEFF00"/>
<path d="M6.75 1.125H2.8125C1.88052 1.125 1.125 1.88052 1.125 2.8125V6.75C1.125 7.68198 1.88052 8.4375 2.8125 8.4375H6.75C7.68198 8.4375 8.4375 7.68198 8.4375 6.75V2.8125C8.4375 1.88052 7.68198 1.125 6.75 1.125Z" fill="#DEFF00"/>
</svg>
